<svg xmlns="http://www.w3.org/2000/svg" xmlns:xlink="http://www.w3.org/1999/xlink" version="1.1" id="Layer_1" x="0px" y="0px" viewBox="0 0 1200 1200" enable-background="new 0 0 1200 1200" xml:space="preserve">
<g>
	<path d="M542.898,344.495c7.546,32.576,17.318,70.121,24.746,97.911c6.165-29.523,14.886-69.746,23.336-103.288   c27.349-108.591,95.88-139.028,159.308-154.339C767.184,180.702,782.179,174,795.459,164H354.566c-0.351,0-0.707-0.321-1.059-0.547   c14.935,12.46,31.447,23.092,49.445,31.025C438.183,210.007,522.341,255.776,542.898,344.495z" fill="#ab9266"/>
	<path d="M754.996,204.78c-60.502,14.605-119.888,41.975-144.563,139.947c-15.215,60.395-31.368,143.749-31.528,144.576   c-0.891,4.561-4.8,9.697-9.446,9.697c-0.134,0-0.268,0-0.402,0c-4.48,0-8.44-4.574-9.658-8.923   c-0.216-0.78-21.958-79.453-36.047-140.259c-18.51-79.891-96.024-122.2-128.492-136.511   c-67.1-29.576-116.495-91.11-135.538-163.294l-6.279,475.594c0,130.128,22.447,216.923,62.364,288.125   c49.035,87.468,112.111,139.623,188.953,168.258l0.09,111.576c-7.996,20.746-27.695,32.361-61.815,36.51l2.423,19.914   c42.809-5.208,68.613-22.002,78.888-51.339c0.375-1.071,0.565-2.195,0.565-3.325l-0.085-106.5   c52.037,16.211,110.019,22.683,173.879,22.703l0.067,82.023c-7.996,20.747-27.695,32.367-61.815,36.517l2.423,19.917   c42.809-5.208,68.613-22,78.888-51.337c0.375-1.071,0.565-2.194,0.565-3.324l-0.067-83.787l170.734-0.081l0.067-57.412   l-208.521-187.67c-2.72-2.446-3.889-6.178-3.056-9.74l35.773-152.853c0.79-3.383,3.275-6.116,6.569-7.222l168.817-56.781   l0.154-488.951C870.417,119.515,828.65,187.004,754.996,204.78z M498.333,352.253c-2.945,55.161-50.05,97.49-105.21,94.544   c-55.161-2.946-97.49-50.05-94.544-105.21c2.945-55.161,50.05-97.49,105.21-94.544C458.95,249.988,501.279,297.092,498.333,352.253   z M832.728,348.139c-5.838,54.93-45.998,99.465-101.233,98.791c-55.235-0.674-99.466-45.998-98.791-101.233   c0.674-55.235,46.042-101.111,101.233-98.791C790.357,249.278,837.912,299.361,832.728,348.139z" fill="#ab9266"/>
	<path d="M733.427,284.93c-0.826-0.036-1.652-0.052-2.475-0.052c-15.019,0-29.33,5.76-40.533,16.375   c-12.267,11.617-19.421,27.985-19.627,44.905c-0.202,16.551,6.053,32.194,17.618,44.043c11.562,11.849,27.048,18.484,43.602,18.686   c32.445,0.327,58.919-25.481,62.752-61.531c1.384-13.047-3.598-27.234-13.671-38.92   C769.052,294.467,751.234,285.681,733.427,284.93z" fill="#ab9266"/>
	<path d="M401.623,287.614c-1.071-0.059-2.142-0.088-3.203-0.088c-31.312,0-57.583,24.596-59.271,56.228   c-0.849,15.842,4.525,31.064,15.131,42.864c10.605,11.8,25.167,18.765,41.01,19.607c32.693,1.838,60.728-23.437,62.475-56.14   c0.849-15.842-4.525-31.064-15.13-42.864C432.028,295.421,417.465,288.456,401.623,287.614z" fill="#ab9266"/>
	<path d="M916.081,955.193L765.893,733.866l18.007-12.219l156.405,230.487c-35.914-106.723-97.249-288.906-98.106-291.463   l20.621-6.942c0.757,2.246,48.257,143.346,84.136,249.95l-43.55-350.096l-165.161,55.551l-35.957,153.646L916.081,955.193z" fill="#ab9266"/>
</g>
</svg>